Hanif_Shallow_7_5_grf.mot
version=1
nRows=53
nColumns=19
inDegrees=yes
endheader
time	right_ground_force_vx	right_ground_force_vy	right_ground_force_vz	right_ground_force_px	right_ground_force_py	right_ground_force_pz	right_ground_torque_x	right_ground_torque_y	right_ground_torque_z	left_ground_force_vx	left_ground_force_vy	left_ground_force_vz	left_ground_force_px	left_ground_force_py	left_ground_force_pz	left_ground_torque_x	left_ground_torque_y	left_ground_torque_z
2.525000	3.600600	271.567000	64.257900	0.206542	0.000000	-1.427530	-21.260900	3.539200	2.646570	-13.582700	240.055000	-58.133300	0.227414	0.000000	-0.982661	19.294900	-0.362857	7.316780
2.530000	3.120230	270.483000	64.273200	0.206891	0.000000	-1.428030	-21.048900	3.346390	2.706460	-13.685800	236.168000	-57.808200	0.226882	0.000000	-0.982804	19.022700	-0.383806	7.090260
2.535000	3.276630	267.197000	63.988700	0.206933	0.000000	-1.427370	-20.966500	3.290830	2.685010	-13.831200	236.744000	-57.786800	0.226642	0.000000	-0.982821	19.071700	-0.344111	7.036670
2.540000	2.546650	263.287000	63.463500	0.206348	0.000000	-1.427900	-20.529700	3.128380	2.474580	-13.940500	235.376000	-57.128800	0.226847	0.000000	-0.982828	18.965600	-0.322932	7.039950
2.545000	2.355970	261.882000	62.865700	0.207154	0.000000	-1.428010	-20.393400	3.035390	2.666010	-13.947200	233.699000	-56.642300	0.226673	0.000000	-0.982370	18.725800	-0.349882	6.952850
2.550000	1.845300	261.025000	63.027600	0.207072	0.000000	-1.428540	-20.196500	2.904500	2.620270	-13.475100	232.220000	-56.607000	0.226270	0.000000	-0.982866	18.716000	-0.358602	6.812630
2.555000	1.460420	257.236000	62.175000	0.207930	0.000000	-1.428020	-20.041400	2.706510	2.785800	-13.210100	230.329000	-56.037300	0.226198	0.000000	-0.982200	18.404100	-0.307773	6.720750
2.560000	1.397470	253.313000	62.029000	0.208847	0.000000	-1.428370	-19.648700	2.578340	2.980340	-12.946200	230.025000	-55.834000	0.225571	0.000000	-0.980691	18.026200	-0.323488	6.551240
2.565000	1.099740	254.050000	60.890800	0.209073	0.000000	-1.428240	-19.743300	2.503600	3.017060	-12.798600	228.040000	-55.837700	0.225505	0.000000	-0.981207	17.987500	-0.305458	6.484830
2.570000	0.759648	253.309000	60.841000	0.208680	0.000000	-1.428030	-19.742200	2.271730	2.856930	-12.271400	227.796000	-56.364800	0.225270	0.000000	-0.981413	18.008400	-0.325550	6.427510
2.575000	1.014930	251.439000	60.365000	0.208696	0.000000	-1.428370	-19.508700	2.150690	2.810070	-11.726200	226.994000	-55.892300	0.225012	0.000000	-0.982241	18.120800	-0.256447	6.313780
2.580000	0.861893	251.381000	60.253800	0.209420	0.000000	-1.427850	-19.635600	2.085570	2.987750	-11.702600	227.506000	-56.076200	0.225292	0.000000	-0.980746	17.818400	-0.214354	6.380730
2.585000	1.145890	247.417000	59.183500	0.209989	0.000000	-1.427300	-19.460700	1.991860	3.067760	-11.669600	227.059000	-56.189200	0.224842	0.000000	-0.981314	17.910700	-0.194758	6.260500
2.590000	1.029680	245.630000	58.585300	0.209815	0.000000	-1.426990	-19.396400	1.827930	2.964700	-11.643100	225.894000	-55.669100	0.224496	0.000000	-0.981247	17.801300	-0.166544	6.135180
2.595000	0.158129	244.022000	57.555900	0.209458	0.000000	-1.427680	-19.109900	1.682570	2.830180	-11.576600	224.551000	-55.802200	0.223747	0.000000	-0.981496	17.749000	-0.145365	5.923770
2.600000	0.043404	240.229000	56.646800	0.210399	0.000000	-1.427830	-18.777800	1.577150	3.008100	-11.154700	224.474000	-55.228500	0.222843	0.000000	-0.980348	17.475900	-0.154879	5.688530
2.605000	-0.693364	235.309000	55.198700	0.209541	0.000000	-1.426820	-18.637300	1.418470	2.714130	-10.867700	223.465000	-55.235100	0.223063	0.000000	-0.979817	17.276700	-0.171553	5.717440
2.610000	-1.093150	233.225000	53.997300	0.209805	0.000000	-1.427260	-18.373300	1.262620	2.721700	-10.340700	223.081000	-55.076200	0.222060	0.000000	-0.979687	17.210500	-0.216056	5.470350
2.615000	-1.672390	228.279000	53.399500	0.209610	0.000000	-1.427050	-18.035400	1.101660	2.602280	-10.170400	220.654000	-54.688000	0.221898	0.000000	-0.979412	16.957100	-0.118691	5.350730
2.620000	-1.442470	226.325000	51.852600	0.210252	0.000000	-1.426480	-18.008800	1.062020	2.711780	-10.271600	220.071000	-54.264700	0.220580	0.000000	-0.978751	16.767200	-0.174387	5.039190
2.625000	-1.644280	223.533000	51.638600	0.210625	0.000000	-1.425510	-18.003600	0.977854	2.758270	-10.768500	219.151000	-53.715900	0.221196	0.000000	-0.978847	16.727300	-0.189566	5.170900
2.630000	-1.644250	222.434000	50.615400	0.211602	0.000000	-1.426000	-17.806700	0.870719	2.942390	-11.041800	220.231000	-53.568300	0.220150	0.000000	-0.977447	16.498400	-0.150882	4.936910
2.635000	-2.353810	220.737000	49.744400	0.211215	0.000000	-1.425430	-17.800000	0.721128	2.806460	-11.315000	219.101000	-52.684300	0.220938	0.000000	-0.979149	16.793700	-0.152346	5.096580
2.640000	-2.750300	220.329000	49.278700	0.212031	0.000000	-1.425220	-17.815400	0.550145	2.956170	-12.162100	220.684000	-52.062500	0.220684	0.000000	-0.977671	16.595500	-0.136082	5.064980
2.645000	-3.289640	218.867000	48.525500	0.212174	0.000000	-1.424710	-17.811900	0.539176	2.974310	-12.184400	222.620000	-52.101800	0.219921	0.000000	-0.978359	16.891200	-0.143888	4.926340
2.650000	-3.839730	218.330000	48.206300	0.212978	0.000000	-1.425790	-17.534700	0.396895	3.127160	-12.293300	221.609000	-51.738400	0.220458	0.000000	-0.979258	17.020500	-0.185412	5.042950
2.655000	-4.338460	218.495000	47.996800	0.211587	0.000000	-1.425930	-17.521400	0.388146	2.815360	-12.881900	223.024000	-51.143200	0.220099	0.000000	-0.978477	16.958600	-0.171986	4.980700
2.660000	-4.302130	216.565000	47.495400	0.211913	0.000000	-1.425520	-17.454200	0.340908	2.854820	-12.855800	222.771000	-51.122700	0.220507	0.000000	-0.980272	17.340200	-0.144530	5.070070
2.665000	-4.579850	214.778000	47.205200	0.211531	0.000000	-1.426290	-17.147800	0.362356	2.756040	-13.263900	224.336000	-51.545500	0.219568	0.000000	-0.978789	17.134000	-0.215136	4.902060
2.670000	-5.100120	217.094000	47.220900	0.211772	0.000000	-1.427090	-17.160200	0.274915	2.823950	-13.574900	225.806000	-51.018300	0.218326	0.000000	-0.978539	17.192900	-0.295078	4.647660
2.675000	-5.429890	215.998000	47.007500	0.210192	0.000000	-1.427870	-16.904800	0.271267	2.457150	-13.515700	227.709000	-51.153600	0.218508	0.000000	-0.977321	17.054200	-0.249369	4.708760
2.680000	-5.419380	217.434000	47.402200	0.210617	0.000000	-1.427930	-17.007400	0.387265	2.594890	-13.295700	229.464000	-51.824600	0.217489	0.000000	-0.977520	17.226800	-0.299878	4.509330
2.685000	-5.457120	218.525000	47.552600	0.211016	0.000000	-1.428270	-17.018400	0.340408	2.687730	-12.816000	231.995000	-52.163900	0.217137	0.000000	-0.976996	17.289500	-0.379372	4.475150
2.690000	-5.094130	220.368000	48.170000	0.209416	0.000000	-1.428730	-17.057200	0.406135	2.348860	-12.383200	235.773000	-52.505600	0.215768	0.000000	-0.975999	17.324800	-0.430218	4.199180
2.695000	-4.948770	222.301000	48.770900	0.209245	0.000000	-1.428830	-17.184400	0.472398	2.341530	-11.879400	236.992000	-52.647900	0.215206	0.000000	-0.977512	17.767000	-0.472366	4.083110
2.700000	-4.439870	224.850000	49.390300	0.208450	0.000000	-1.430090	-17.093200	0.518738	2.179630	-11.922000	241.773000	-53.056900	0.214636	0.000000	-0.975616	17.661300	-0.479036	4.004200
2.705000	-4.269250	227.867000	49.861700	0.207719	0.000000	-1.430680	-17.188300	0.685225	2.063430	-10.786400	243.557000	-53.545000	0.215058	0.000000	-0.976218	17.927000	-0.532956	4.135570
2.710000	-4.010340	230.226000	50.309400	0.206957	0.000000	-1.431370	-17.206800	0.744739	1.906230	-10.343300	251.298000	-54.100300	0.213674	0.000000	-0.974913	18.159400	-0.650943	3.895850
2.715000	-4.007620	232.770000	50.544300	0.206152	0.000000	-1.430960	-17.494700	0.953319	1.771850	-9.643360	253.942000	-54.992900	0.213709	0.000000	-0.975285	18.441600	-0.797150	3.968230
2.720000	-3.106420	236.058000	51.124600	0.206842	0.000000	-1.431610	-17.581000	0.980950	1.953240	-8.843350	257.157000	-55.300200	0.214343	0.000000	-0.975956	18.837600	-0.787261	4.167090
2.725000	-2.269790	241.027000	51.659700	0.205466	0.000000	-1.432990	-17.610800	1.069750	1.642850	-8.834540	262.310000	-56.357500	0.212815	0.000000	-0.975226	19.023000	-0.933799	3.854380
2.730000	-1.532410	243.715000	53.018600	0.204536	0.000000	-1.433080	-17.781500	1.201330	1.443570	-8.190660	266.214000	-57.139500	0.212750	0.000000	-0.975101	19.265700	-1.002210	3.892370
2.735000	-1.479680	246.452000	53.364800	0.203887	0.000000	-1.433920	-17.774800	1.349500	1.318240	-8.197580	271.440000	-57.142500	0.213029	0.000000	-0.974378	19.447200	-1.062630	4.040240
2.740000	-1.834280	248.102000	54.241000	0.203324	0.000000	-1.434240	-17.815700	1.383100	1.195150	-8.492820	274.296000	-58.201400	0.212221	0.000000	-0.974598	19.714300	-1.105420	3.866600
2.745000	-1.289680	249.490000	54.491900	0.202898	0.000000	-1.435310	-17.646200	1.468590	1.098260	-8.439080	277.347000	-58.646200	0.212505	0.000000	-0.974708	19.962700	-1.115530	3.987040
2.750000	-1.684440	251.598000	54.938300	0.202262	0.000000	-1.435440	-17.764400	1.611040	0.974073	-8.455570	278.881000	-59.535200	0.211925	0.000000	-0.974611	20.047500	-1.206330	3.863870
2.755000	-1.730900	254.015000	55.429900	0.201696	0.000000	-1.435620	-17.890900	1.610270	0.829361	-8.451350	280.762000	-59.869000	0.211524	0.000000	-0.974173	20.058100	-1.217330	3.770360
2.760000	-0.858261	256.590000	56.412900	0.201554	0.000000	-1.436060	-17.951000	1.710250	0.807306	-8.935440	281.475000	-60.414500	0.210603	0.000000	-0.974264	20.143200	-1.371860	3.553210
2.765000	-0.181521	260.062000	57.755200	0.200859	0.000000	-1.436630	-18.042700	1.805090	0.638000	-9.021660	282.898000	-60.566100	0.210394	0.000000	-0.973488	20.026500	-1.419910	3.515230
2.770000	-0.099109	262.365000	58.243900	0.201218	0.000000	-1.437900	-17.868900	1.814100	0.739494	-9.287330	285.326000	-60.740200	0.210051	0.000000	-0.972996	20.060100	-1.453450	3.445590
2.775000	0.353840	265.718000	59.615300	0.200579	0.000000	-1.438470	-17.942700	1.913640	0.585530	-9.226020	285.513000	-61.881600	0.209265	0.000000	-0.972615	19.964800	-1.529730	3.240380
2.780000	1.458180	267.632000	60.460400	0.199980	0.000000	-1.437730	-18.261700	2.041130	0.432860	-9.035110	286.896000	-62.588400	0.208361	0.000000	-0.973047	20.182500	-1.583530	2.996440
2.785000	1.834180	270.975000	61.607900	0.199952	0.000000	-1.437760	-18.479600	2.061900	0.426695	-8.360620	288.040000	-63.677500	0.208211	0.000000	-0.971730	19.876900	-1.658400	2.974370
